<?xml version="1.0" encoding="UTF-8"?>
<svg
  xmlns="http://www.w3.org/2000/svg"
  xmlns:xlink="http://www.w3.org/1999/xlink"
  width="0"
  height="0"
>
  <defs>
    <symbol viewBox="0 0 384 512" id="xmark">
      <path
        d="M192 233.4L59.5 100.9 36.9 123.5 169.4 256 36.9 388.5l22.6 22.6L192 278.6 324.5 411.1l22.6-22.6L214.6 256 347.1 123.5l-22.6-22.6L192 233.4z"
      ></path>
    </symbol>
    <symbol viewBox="0 0 576 512" id="star">
      <path
        d="M287.9 0c9.2 0 17.6 5.2 21.6 13.5l68.6 141.3 153.2 22.6c9 1.3 16.5 7.6 19.3 16.3s.5 18.1-5.9 24.5L433.6 328.4l26.2 155.6c1.5 9-2.2 18.1-9.7 23.5s-17.3 6-25.3 1.7l-137-73.2L151 509.1c-8.1 4.3-17.9 3.7-25.3-1.7s-11.2-14.5-9.7-23.5l26.2-155.6L31.1 218.2c-6.5-6.4-8.7-15.9-5.9-24.5s10.3-14.9 19.3-16.3l153.2-22.6L266.3 13.5C270.4 5.2 278.7 0 287.9 0zm0 79L235.4 187.2c-3.5 7.1-10.2 12.1-18.1 13.3L99 217.9 184.9 303c5.5 5.5 8.1 13.3 6.8 21L171.4 443.7l105.2-56.2c7.1-3.8 15.6-3.8 22.6 0l105.2 56.2L384.2 324.1c-1.3-7.7 1.2-15.5 6.8-21l85.9-85.1L358.6 200.5c-7.8-1.2-14.6-6.1-18.1-13.3L287.9 79z"
      ></path>
    </symbol>
    <symbol viewBox="0 0 512 512" id="person-to-portal">
      <path
        d="M256 56a24 24 0 1 1 48 0 24 24 0 1 1 -48 0zm80 0A56 56 0 1 0 224 56a56 56 0 1 0 112 0zM128 112l-6.6 0-4.7 4.7-64 64L41.4 192 64 214.6l11.3-11.3L134.6 144l39.1 0 15.9 4.5L153.2 257.9c-7.3 21.8 2 45.7 22 57l93.3 52.5L217.4 512l33.9 0 51.8-146.7 4.5-12.7-11.7-6.6-49.2-27.7c.2-.4 .4-.9 .5-1.3l37.2-111.6 20.3 70.9 3.3 11.6 12.1 0 80 0 16 0 0-32-16 0-67.9 0L303.4 155.6l-2.4-8.5-8.5-2.4-112-32-2.2-.6-2.2 0-48 0zm55.5 156l36.9-110.7 42.2 12.1-44.3 133L190.9 287c-6.7-3.8-9.8-11.7-7.3-19zM101.3 384L16 384 0 384l0 32 16 0 96 0 10.7 0 4.1-9.9 27.4-66.6c-10-6.7-18.2-15.5-24.1-25.4L101.3 384zm357.2 60.2C445.6 480 433.6 480 432 480c0 0 0 0 0 0s0 0 0 0c-1.6 0-13.6 0-26.4-35.8c-9.4-26.3-16.8-66.4-19.9-124.2l-32 0c7.3 140.7 39.7 192 78.4 192c44.2 0 80-66.6 80-256S476.2 0 432 0c-41.6 0-75.8 59-79.6 224l32 0c1.8-75.3 10.1-125.3 21.2-156.2C418.4 32 430.4 32 432 32c0 0 0 0 0 0s0 0 0 0c1.6 0 13.6 0 26.4 35.8C471.1 102.9 480 162.5 480 256s-8.9 153.1-21.5 188.2z"
      ></path>
    </symbol>
    <symbol viewBox="0 0 512 512" id="magnifying-glass">
      <path
        d="M384 208A176 176 0 1 0 32 208a176 176 0 1 0 352 0zM343.3 366C307 397.2 259.7 416 208 416C93.1 416 0 322.9 0 208S93.1 0 208 0S416 93.1 416 208c0 51.7-18.8 99-50 135.3L510.5 487.9l-22.6 22.6L343.3 366z"
      ></path>
    </symbol>
    <symbol viewBox="0 0 448 512" id="linkedin">
      <path
        d="M416 32H31.9C14.3 32 0 46.5 0 64.3v383.4C0 465.5 14.3 480 31.9 480H416c17.6 0 32-14.5 32-32.3V64.3c0-17.8-14.4-32.3-32-32.3zM135.4 416H69V202.2h66.5V416zm-33.2-243c-21.3 0-38.5-17.3-38.5-38.5S80.9 96 102.2 96c21.2 0 38.5 17.3 38.5 38.5 0 21.3-17.2 38.5-38.5 38.5zm282.1 243h-66.4V312c0-24.8-.5-56.7-34.5-56.7-34.6 0-39.9 27-39.9 54.9V416h-66.4V202.2h63.7v29.2h.9c8.9-16.8 30.6-34.5 62.9-34.5 67.2 0 79.7 44.3 79.7 101.9V416z"
      ></path>
    </symbol>
    <symbol viewBox="0 0 496 512" id="github">
      <path
        d="M165.9 397.4c0 2-2.3 3.6-5.2 3.6-3.3 .3-5.6-1.3-5.6-3.6 0-2 2.3-3.6 5.2-3.6 3-.3 5.6 1.3 5.6 3.6zm-31.1-4.5c-.7 2 1.3 4.3 4.3 4.9 2.6 1 5.6 0 6.2-2s-1.3-4.3-4.3-5.2c-2.6-.7-5.5 .3-6.2 2.3zm44.2-1.7c-2.9 .7-4.9 2.6-4.6 4.9 .3 2 2.9 3.3 5.9 2.6 2.9-.7 4.9-2.6 4.6-4.6-.3-1.9-3-3.2-5.9-2.9zM244.8 8C106.1 8 0 113.3 0 252c0 110.9 69.8 205.8 169.5 239.2 12.8 2.3 17.3-5.6 17.3-12.1 0-6.2-.3-40.4-.3-61.4 0 0-70 15-84.7-29.8 0 0-11.4-29.1-27.8-36.6 0 0-22.9-15.7 1.6-15.4 0 0 24.9 2 38.6 25.8 21.9 38.6 58.6 27.5 72.9 20.9 2.3-16 8.8-27.1 16-33.7-55.9-6.2-112.3-14.3-112.3-110.5 0-27.5 7.6-41.3 23.6-58.9-2.6-6.5-11.1-33.3 2.6-67.9 20.9-6.5 69 27 69 27 20-5.6 41.5-8.5 62.8-8.5s42.8 2.9 62.8 8.5c0 0 48.1-33.6 69-27 13.7 34.7 5.2 61.4 2.6 67.9 16 17.7 25.8 31.5 25.8 58.9 0 96.5-58.9 104.2-114.8 110.5 9.2 7.9 17 22.9 17 46.4 0 33.7-.3 75.4-.3 83.6 0 6.5 4.6 14.4 17.3 12.1C428.2 457.8 496 362.9 496 252 496 113.3 383.5 8 244.8 8zM97.2 352.9c-1.3 1-1 3.3 .7 5.2 1.6 1.6 3.9 2.3 5.2 1 1.3-1 1-3.3-.7-5.2-1.6-1.6-3.9-2.3-5.2-1zm-10.8-8.1c-.7 1.3 .3 2.9 2.3 3.9 1.6 1 3.6 .7 4.3-.7 .7-1.3-.3-2.9-2.3-3.9-2-.6-3.6-.3-4.3 .7zm32.4 35.6c-1.6 1.3-1 4.3 1.3 6.2 2.3 2.3 5.2 2.6 6.5 1 1.3-1.3 .7-4.3-1.3-6.2-2.2-2.3-5.2-2.6-6.5-1zm-11.4-14.7c-1.6 1-1.6 3.6 0 5.9 1.6 2.3 4.3 3.3 5.6 2.3 1.6-1.3 1.6-3.9 0-6.2-1.4-2.3-4-3.3-5.6-2z"
      ></path>
    </symbol>
    <symbol viewBox="0 0 320 512" id="caret-down">
      <path
        d="M288 224L32 224l0 1.7L160 341 288 225.8l0-1.7zm0-32l32 0 0 32 0 16L160 384 0 240l0-16 0-32 32 0 256 0z"
      ></path>
    </symbol>
    <symbol viewBox="0 0 576 512" id="bluesky">
      <path
        d="M407.8 294.7c-3.3-.4-6.7-.8-10-1.3c3.4 .4 6.7 .9 10 1.3zM288 227.1C261.9 176.4 190.9 81.9 124.9 35.3C61.6-9.4 37.5-1.7 21.6 5.5C3.3 13.8 0 41.9 0 58.4S9.1 194 15 213.9c19.5 65.7 89.1 87.9 153.2 80.7c3.3-.5 6.6-.9 10-1.4c-3.3 .5-6.6 1-10 1.4C74.3 308.6-9.1 342.8 100.3 464.5C220.6 589.1 265.1 437.8 288 361.1c22.9 76.7 49.2 222.5 185.6 103.4c102.4-103.4 28.1-156-65.8-169.9c-3.3-.4-6.7-.8-10-1.3c3.4 .4 6.7 .9 10 1.3c64.1 7.1 133.6-15.1 153.2-80.7C566.9 194 576 75 576 58.4s-3.3-44.7-21.6-52.9c-15.8-7.1-40-14.9-103.2 29.8C385.1 81.9 314.1 176.4 288 227.1z"
      ></path>
    </symbol>
    <symbol viewBox="0 0 448 512" id="bars-filter">
      <path
        d="M0 64l448 0 0 32L0 96 0 64zM64 224l320 0 0 32L64 256l0-32zM288 384l0 32-128 0 0-32 128 0z"
      ></path>
    </symbol>
    <symbol viewBox="0 0 320 512" id="angle-right">
      <path
        d="M278.6 256l-11.3 11.3-160 160L96 438.6 73.4 416l11.3-11.3L233.4 256 84.7 107.3 73.4 96 96 73.4l11.3 11.3 160 160L278.6 256z"
      ></path>
    </symbol>
  </defs>
</svg>
