<?xml version="1.0" encoding="UTF-8"?>
<svg
  xmlns="http://www.w3.org/2000/svg"
  xmlns:xlink="http://www.w3.org/1999/xlink"
  width="0"
  height="0"
>
  <defs>
    <symbol viewBox="0 0 384 512" id="xmark">
      <path
        d="M192 233.4L59.5 100.9 36.9 123.5 169.4 256 36.9 388.5l22.6 22.6L192 278.6 324.5 411.1l22.6-22.6L214.6 256 347.1 123.5l-22.6-22.6L192 233.4z"
      ></path>
    </symbol>
    <symbol viewBox="0 0 640 640" id="user">
      <path
        d="M240 192C240 147.8 275.8 112 320 112C364.2 112 400 147.8 400 192C400 236.2 364.2 272 320 272C275.8 272 240 236.2 240 192zM448 192C448 121.3 390.7 64 320 64C249.3 64 192 121.3 192 192C192 262.7 249.3 320 320 320C390.7 320 448 262.7 448 192zM144 544C144 473.3 201.3 416 272 416L368 416C438.7 416 496 473.3 496 544L496 552C496 565.3 506.7 576 520 576C533.3 576 544 565.3 544 552L544 544C544 446.8 465.2 368 368 368L272 368C174.8 368 96 446.8 96 544L96 552C96 565.3 106.7 576 120 576C133.3 576 144 565.3 144 552L144 544z"
      ></path>
    </symbol>
    <symbol viewBox="0 0 640 640" id="trash-can">
      <path
        d="M262.2 48C248.9 48 236.9 56.3 232.2 68.8L216 112L120 112C106.7 112 96 122.7 96 136C96 149.3 106.7 160 120 160L520 160C533.3 160 544 149.3 544 136C544 122.7 533.3 112 520 112L424 112L407.8 68.8C403.1 56.3 391.2 48 377.8 48L262.2 48zM128 208L128 512C128 547.3 156.7 576 192 576L448 576C483.3 576 512 547.3 512 512L512 208L464 208L464 512C464 520.8 456.8 528 448 528L192 528C183.2 528 176 520.8 176 512L176 208L128 208zM288 280C288 266.7 277.3 256 264 256C250.7 256 240 266.7 240 280L240 456C240 469.3 250.7 480 264 480C277.3 480 288 469.3 288 456L288 280zM400 280C400 266.7 389.3 256 376 256C362.7 256 352 266.7 352 280L352 456C352 469.3 362.7 480 376 480C389.3 480 400 469.3 400 456L400 280z"
      ></path>
    </symbol>
    <symbol viewBox="0 0 640 640" id="table">
      <path
        d="M144 336L296 336L296 224L144 224L144 336zM96 384L96 160C96 124.7 124.7 96 160 96L480 96C515.3 96 544 124.7 544 160L544 480C544 515.3 515.3 544 480 544L160 544C124.7 544 96 515.3 96 480L96 384zM496 336L496 224L344 224L344 336L496 336zM496 384L344 384L344 496L480 496C488.8 496 496 488.8 496 480L496 384zM296 496L296 384L144 384L144 480C144 488.8 151.2 496 160 496L296 496z"
      ></path>
    </symbol>
    <symbol viewBox="0 0 576 512" id="star">
      <path
        d="M287.9 0c9.2 0 17.6 5.2 21.6 13.5l68.6 141.3 153.2 22.6c9 1.3 16.5 7.6 19.3 16.3s.5 18.1-5.9 24.5L433.6 328.4l26.2 155.6c1.5 9-2.2 18.1-9.7 23.5s-17.3 6-25.3 1.7l-137-73.2L151 509.1c-8.1 4.3-17.9 3.7-25.3-1.7s-11.2-14.5-9.7-23.5l26.2-155.6L31.1 218.2c-6.5-6.4-8.7-15.9-5.9-24.5s10.3-14.9 19.3-16.3l153.2-22.6L266.3 13.5C270.4 5.2 278.7 0 287.9 0zm0 79L235.4 187.2c-3.5 7.1-10.2 12.1-18.1 13.3L99 217.9 184.9 303c5.5 5.5 8.1 13.3 6.8 21L171.4 443.7l105.2-56.2c7.1-3.8 15.6-3.8 22.6 0l105.2 56.2L384.2 324.1c-1.3-7.7 1.2-15.5 6.8-21l85.9-85.1L358.6 200.5c-7.8-1.2-14.6-6.1-18.1-13.3L287.9 79z"
      ></path>
    </symbol>
    <symbol viewBox="0 0 512 512" id="sidebar">
      <path
        d="M224 80l0 352 224 0c8.8 0 16-7.2 16-16l0-320c0-8.8-7.2-16-16-16L224 80zM0 96C0 60.7 28.7 32 64 32l384 0c35.3 0 64 28.7 64 64l0 320c0 35.3-28.7 64-64 64L64 480c-35.3 0-64-28.7-64-64L0 96zm64 24c0 13.3 10.7 24 24 24l48 0c13.3 0 24-10.7 24-24s-10.7-24-24-24L88 96c-13.3 0-24 10.7-24 24zm24 72c-13.3 0-24 10.7-24 24s10.7 24 24 24l48 0c13.3 0 24-10.7 24-24s-10.7-24-24-24l-48 0zM64 312c0 13.3 10.7 24 24 24l48 0c13.3 0 24-10.7 24-24s-10.7-24-24-24l-48 0c-13.3 0-24 10.7-24 24z"
      ></path>
    </symbol>
    <symbol viewBox="0 0 640 640" id="share">
      <path
        d="M376 240C389.3 240 400 229.3 400 216L400 150.6L521.4 272L400 393.4L400 328C400 314.7 389.3 304 376 304L256 304C189.8 304 134 348.7 117.2 409.5C113.9 397.1 112 383.3 112 368C112 297.3 169.3 240 240 240L376 240zM352 352L352 432C352 444.9 359.8 456.6 371.8 461.6C383.8 466.6 397.5 463.8 406.7 454.7L566.7 294.7C579.2 282.2 579.2 261.9 566.7 249.4L406.7 89.4C397.5 80.2 383.8 77.5 371.8 82.5C359.8 87.5 352 99.1 352 112L352 192L240 192C142.8 192 64 270.8 64 368C64 446 102.6 494.2 132.7 520.1C136.8 523.6 140.8 526.7 144.4 529.4C147.6 531.8 150.6 533.8 153.3 535.6C157.8 538.6 161.6 540.7 164.1 542.1C166.6 543.5 169.4 544 172.2 544C183.1 544 191.9 535.1 191.9 524.3C191.9 517.5 188.3 511.1 183.6 506.2C183.1 505.7 182.7 505.3 182.2 504.8C179.8 502.5 177.1 499.7 174.5 496.2C172.8 493.9 171.1 491.2 169.5 488.3C164.2 478.6 160 465.4 160 448.1C160 395.1 203 352.1 256 352.1L352 352.1z"
      ></path>
    </symbol>
    <symbol viewBox="0 0 640 640" id="scissors">
      <path
        d="M112 176C112 140.7 140.7 112 176 112C211.3 112 240 140.7 240 176C240 211.3 211.3 240 176 240C140.7 240 112 211.3 112 176zM288 176C288 114.1 237.9 64 176 64C114.1 64 64 114.1 64 176C64 237.9 114.1 288 176 288C200 288 222.3 280.4 240.5 267.6L297.8 320L240.5 372.4C222.3 359.6 200 352 176 352C114.1 352 64 402.1 64 464C64 525.9 114.1 576 176 576C237.9 576 288 525.9 288 464C288 443.5 282.5 424.4 272.9 407.8L568.2 137.7C578 128.8 578.7 113.6 569.7 103.8C560.7 94 545.6 93.3 535.8 102.3L333.4 287.5L272.9 232.2C282.5 215.7 288 196.5 288 176zM535.8 537.7C545.6 546.6 560.8 546 569.7 536.2C578.6 526.4 578 511.2 568.2 502.3L402.6 350.8L366.7 383L535.8 537.7zM112 464C112 428.7 140.7 400 176 400C211.3 400 240 428.7 240 464C240 499.3 211.3 528 176 528C140.7 528 112 499.3 112 464z"
      ></path>
    </symbol>
    <symbol viewBox="0 0 640 640" id="presentation-screen">
      <path
        d="M88 96C74.7 96 64 106.7 64 120C64 133.3 74.7 144 88 144L96 144L96 384C96 419.3 124.7 448 160 448L296 448L296 483.5L226.2 532.3C215.3 539.9 212.7 554.9 220.3 565.7C227.9 576.5 242.9 579.2 253.7 571.6L319.9 525.2L386.1 571.6C397 579.2 411.9 576.6 419.5 565.7C427.1 554.8 424.5 539.9 413.6 532.3L343.8 483.5L343.8 448L479.8 448C515.1 448 543.8 419.3 543.8 384L543.8 144L551.8 144C565.1 144 575.8 133.3 575.8 120C575.8 106.7 565.1 96 551.8 96L88 96zM496 144L496 384C496 392.8 488.8 400 480 400L160 400C151.2 400 144 392.8 144 384L144 144L496 144z"
      ></path>
    </symbol>
    <symbol viewBox="0 0 512 512" id="person-to-portal">
      <path
        d="M256 56a24 24 0 1 1 48 0 24 24 0 1 1 -48 0zm80 0A56 56 0 1 0 224 56a56 56 0 1 0 112 0zM128 112l-6.6 0-4.7 4.7-64 64L41.4 192 64 214.6l11.3-11.3L134.6 144l39.1 0 15.9 4.5L153.2 257.9c-7.3 21.8 2 45.7 22 57l93.3 52.5L217.4 512l33.9 0 51.8-146.7 4.5-12.7-11.7-6.6-49.2-27.7c.2-.4 .4-.9 .5-1.3l37.2-111.6 20.3 70.9 3.3 11.6 12.1 0 80 0 16 0 0-32-16 0-67.9 0L303.4 155.6l-2.4-8.5-8.5-2.4-112-32-2.2-.6-2.2 0-48 0zm55.5 156l36.9-110.7 42.2 12.1-44.3 133L190.9 287c-6.7-3.8-9.8-11.7-7.3-19zM101.3 384L16 384 0 384l0 32 16 0 96 0 10.7 0 4.1-9.9 27.4-66.6c-10-6.7-18.2-15.5-24.1-25.4L101.3 384zm357.2 60.2C445.6 480 433.6 480 432 480c0 0 0 0 0 0s0 0 0 0c-1.6 0-13.6 0-26.4-35.8c-9.4-26.3-16.8-66.4-19.9-124.2l-32 0c7.3 140.7 39.7 192 78.4 192c44.2 0 80-66.6 80-256S476.2 0 432 0c-41.6 0-75.8 59-79.6 224l32 0c1.8-75.3 10.1-125.3 21.2-156.2C418.4 32 430.4 32 432 32c0 0 0 0 0 0s0 0 0 0c1.6 0 13.6 0 26.4 35.8C471.1 102.9 480 162.5 480 256s-8.9 153.1-21.5 188.2z"
      ></path>
    </symbol>
    <symbol viewBox="0 0 384 512" id="percent">
      <path
        d="M369 113c9.4-9.4 9.4-24.6 0-33.9s-24.6-9.4-33.9 0L15 399c-9.4 9.4-9.4 24.6 0 33.9s24.6 9.4 33.9 0L369 113zM112 128a48 48 0 1 0 -96 0 48 48 0 1 0 96 0zM368 384a48 48 0 1 0 -96 0 48 48 0 1 0 96 0z"
      ></path>
    </symbol>
    <symbol viewBox="0 0 640 640" id="pencil">
      <path
        d="M122.9 379.1C112.2 389.8 104.4 403.2 100.3 417.8L64.9 545.6C62.6 553.9 64.9 562.9 71.1 569C77.3 575.1 86.2 577.5 94.5 575.2L222.3 539.7C236.9 535.6 250.2 527.9 261 517.1L555 223.1C568.4 209.6 576 191.2 576 172C576 152.8 568.4 134.4 554.8 120.9L519.1 85.2C505.6 71.6 487.2 64 468 64C448.8 64 430.4 71.6 416.9 85.2L122.9 379.2zM468 112C474.4 112 480.6 114.6 485.2 119.1L520.9 154.8C525.5 159.4 528 165.5 528 172C528 178.5 525.4 184.6 520.9 189.2L468 242.1L397.9 172L450.8 119.1C455.4 114.5 461.5 112 468 112zM173.9 396L364 205.9L434.1 276L244 466.1L173.9 396zM145.3 435.3L204.7 494.7L122.5 517.5L145.3 435.3z"
      ></path>
    </symbol>
    <symbol viewBox="0 0 640 640" id="paste">
      <path
        d="M128 112L352 112C360.8 112 368 119.2 368 128L368 176L416 176L416 128C416 92.7 387.3 64 352 64L128 64C92.7 64 64 92.7 64 128L64 448C64 483.3 92.7 512 128 512L240 512L240 464L128 464C119.2 464 112 456.8 112 448L112 128C112 119.2 119.2 112 128 112zM304 184C304 170.7 293.3 160 280 160L168 160C154.7 160 144 170.7 144 184C144 197.3 154.7 208 168 208L273.6 208C282.4 199.4 292.6 192.2 303.8 186.9C303.9 186 304 185 304 184zM512 528L352 528C343.2 528 336 520.8 336 512L336 288C336 279.2 343.2 272 352 272L453.5 272C457.7 272 461.8 273.7 464.8 276.7L523.3 335.2C526.3 338.2 528 342.3 528 346.5L528 512C528 520.8 520.8 528 512 528zM288 288L288 512C288 547.3 316.7 576 352 576L512 576C547.3 576 576 547.3 576 512L576 346.5C576 329.5 569.3 313.2 557.3 301.2L498.8 242.7C486.8 230.7 470.5 224 453.5 224L352 224C316.7 224 288 252.7 288 288z"
      ></path>
    </symbol>
    <symbol viewBox="0 0 512 512" id="magnifying-glass">
      <path
        d="M384 208A176 176 0 1 0 32 208a176 176 0 1 0 352 0zM343.3 366C307 397.2 259.7 416 208 416C93.1 416 0 322.9 0 208S93.1 0 208 0S416 93.1 416 208c0 51.7-18.8 99-50 135.3L510.5 487.9l-22.6 22.6L343.3 366z"
      ></path>
    </symbol>
    <symbol viewBox="0 0 448 512" id="linkedin">
      <path
        d="M416 32H31.9C14.3 32 0 46.5 0 64.3v383.4C0 465.5 14.3 480 31.9 480H416c17.6 0 32-14.5 32-32.3V64.3c0-17.8-14.4-32.3-32-32.3zM135.4 416H69V202.2h66.5V416zm-33.2-243c-21.3 0-38.5-17.3-38.5-38.5S80.9 96 102.2 96c21.2 0 38.5 17.3 38.5 38.5 0 21.3-17.2 38.5-38.5 38.5zm282.1 243h-66.4V312c0-24.8-.5-56.7-34.5-56.7-34.6 0-39.9 27-39.9 54.9V416h-66.4V202.2h63.7v29.2h.9c8.9-16.8 30.6-34.5 62.9-34.5 67.2 0 79.7 44.3 79.7 101.9V416z"
      ></path>
    </symbol>
    <symbol viewBox="0 0 576 512" id="house">
      <path
        d="M303.5 5.7c-9-7.6-22.1-7.6-31.1 0l-264 224c-10.1 8.6-11.3 23.7-2.8 33.8s23.7 11.3 33.8 2.8L64 245.5 64 432c0 44.2 35.8 80 80 80l288 0c44.2 0 80-35.8 80-80l0-186.5 24.5 20.8c10.1 8.6 25.3 7.3 33.8-2.8s7.3-25.3-2.8-33.8l-264-224zM112 432l0-227.2L288 55.5 464 204.8 464 432c0 17.7-14.3 32-32 32l-48 0 0-152c0-22.1-17.9-40-40-40l-112 0c-22.1 0-40 17.9-40 40l0 152-48 0c-17.7 0-32-14.3-32-32zm128 32l0-144 96 0 0 144-96 0z"
      ></path>
    </symbol>
    <symbol viewBox="0 0 496 512" id="github">
      <path
        d="M165.9 397.4c0 2-2.3 3.6-5.2 3.6-3.3 .3-5.6-1.3-5.6-3.6 0-2 2.3-3.6 5.2-3.6 3-.3 5.6 1.3 5.6 3.6zm-31.1-4.5c-.7 2 1.3 4.3 4.3 4.9 2.6 1 5.6 0 6.2-2s-1.3-4.3-4.3-5.2c-2.6-.7-5.5 .3-6.2 2.3zm44.2-1.7c-2.9 .7-4.9 2.6-4.6 4.9 .3 2 2.9 3.3 5.9 2.6 2.9-.7 4.9-2.6 4.6-4.6-.3-1.9-3-3.2-5.9-2.9zM244.8 8C106.1 8 0 113.3 0 252c0 110.9 69.8 205.8 169.5 239.2 12.8 2.3 17.3-5.6 17.3-12.1 0-6.2-.3-40.4-.3-61.4 0 0-70 15-84.7-29.8 0 0-11.4-29.1-27.8-36.6 0 0-22.9-15.7 1.6-15.4 0 0 24.9 2 38.6 25.8 21.9 38.6 58.6 27.5 72.9 20.9 2.3-16 8.8-27.1 16-33.7-55.9-6.2-112.3-14.3-112.3-110.5 0-27.5 7.6-41.3 23.6-58.9-2.6-6.5-11.1-33.3 2.6-67.9 20.9-6.5 69 27 69 27 20-5.6 41.5-8.5 62.8-8.5s42.8 2.9 62.8 8.5c0 0 48.1-33.6 69-27 13.7 34.7 5.2 61.4 2.6 67.9 16 17.7 25.8 31.5 25.8 58.9 0 96.5-58.9 104.2-114.8 110.5 9.2 7.9 17 22.9 17 46.4 0 33.7-.3 75.4-.3 83.6 0 6.5 4.6 14.4 17.3 12.1C428.2 457.8 496 362.9 496 252 496 113.3 383.5 8 244.8 8zM97.2 352.9c-1.3 1-1 3.3 .7 5.2 1.6 1.6 3.9 2.3 5.2 1 1.3-1 1-3.3-.7-5.2-1.6-1.6-3.9-2.3-5.2-1zm-10.8-8.1c-.7 1.3 .3 2.9 2.3 3.9 1.6 1 3.6 .7 4.3-.7 .7-1.3-.3-2.9-2.3-3.9-2-.6-3.6-.3-4.3 .7zm32.4 35.6c-1.6 1.3-1 4.3 1.3 6.2 2.3 2.3 5.2 2.6 6.5 1 1.3-1.3 .7-4.3-1.3-6.2-2.2-2.3-5.2-2.6-6.5-1zm-11.4-14.7c-1.6 1-1.6 3.6 0 5.9 1.6 2.3 4.3 3.3 5.6 2.3 1.6-1.3 1.6-3.9 0-6.2-1.4-2.3-4-3.3-5.6-2z"
      ></path>
    </symbol>
    <symbol viewBox="0 0 640 640" id="gear">
      <path
        d="M269.5 156.7L283.2 96L356.8 96L370.5 156.7C372.2 164.1 377.3 170.3 384.3 173.4C395.1 178.2 405.3 184.1 414.7 191C420.8 195.5 428.8 196.9 436.1 194.6L495.6 176.1L532.4 239.9L486.6 282.2C481 287.4 478.2 294.9 479 302.4C480.3 313.9 480.3 326.1 479 337.6C478.2 345.2 481 352.7 486.6 357.8L532.4 400.1L495.6 463.9L436.1 445.4C428.8 443.1 420.9 444.5 414.7 449C405.3 455.9 395.1 461.9 384.3 466.6C377.3 469.7 372.2 475.9 370.5 483.3L356.8 544L283.2 544L269.5 483.3C267.8 475.9 262.7 469.7 255.7 466.6C244.9 461.8 234.7 455.9 225.3 449C219.2 444.5 211.2 443.1 203.9 445.4L144.4 463.9L107.6 400.1L153.4 357.8C159 352.6 161.8 345.1 161 337.6C159.7 326.1 159.7 313.9 161 302.4C161.8 294.8 159 287.3 153.4 282.2L107.6 239.9L144.4 176.1L203.9 194.6C211.2 196.9 219.1 195.5 225.3 191C234.7 184.1 244.9 178.1 255.7 173.4C262.7 170.3 267.8 164.1 269.5 156.7zM276.8 48C258.1 48 241.9 61 237.8 79.2L225.2 134.8C218.9 138 212.9 141.5 207 145.3L152.6 128.4C134.7 122.8 115.4 130.4 106.1 146.6L62.9 221.4C53.6 237.6 56.7 258.1 70.4 270.8L112.3 309.5C112 316.4 112 323.5 112.3 330.5L70.4 369.2C56.7 381.9 53.5 402.4 62.9 418.6L106.1 493.4C115.4 509.6 134.8 517.1 152.6 511.6L207.1 494.7C213 498.5 219 502 225.3 505.2L237.9 560.8C242 579 258.2 592 276.9 592L363.3 592C382 592 398.2 579 402.3 560.8L414.9 505.2C421.2 502 427.2 498.5 433.1 494.7L487.6 511.6C505.5 517.2 524.8 509.6 534.1 493.4L577.3 418.6C586.6 402.4 583.5 381.9 569.8 369.2L527.9 330.5C528.2 323.6 528.2 316.5 527.9 309.5L569.8 270.8C583.5 258.1 586.6 237.6 577.3 221.4L534 146.6C524.6 130.4 505.3 122.9 487.5 128.4L433 145.3C427.1 141.5 421.1 138 414.8 134.8L402.3 79.2C398.1 61 381.9 48 363.2 48L276.8 48zM368 320C368 346.5 346.5 368 320 368C293.5 368 272 346.5 272 320C272 293.5 293.5 272 320 272C346.5 272 368 293.5 368 320zM320 224C267 224 224 267 224 320C224 373 267 416 320 416C373 416 416 373 416 320C416 267 373 224 320 224z"
      ></path>
    </symbol>
    <symbol viewBox="0 0 640 640" id="folder-open">
      <path
        d="M129.5 464L179.5 304L558.9 304L508.9 464L129.5 464zM320.2 512L509 512C530 512 548.6 498.4 554.8 478.3L604.8 318.3C614.5 287.4 591.4 256 559 256L179.6 256C158.6 256 140 269.6 133.8 289.7L112.2 358.4L112.2 160C112.2 151.2 119.4 144 128.2 144L266.9 144C270.4 144 273.7 145.1 276.5 147.2L314.9 176C328.7 186.4 345.6 192 362.9 192L480.2 192C489 192 496.2 199.2 496.2 208L544.2 208C544.2 172.7 515.5 144 480.2 144L362.9 144C356 144 349.2 141.8 343.7 137.6L305.3 108.8C294.2 100.5 280.8 96 266.9 96L128.2 96C92.9 96 64.2 124.7 64.2 160L64.2 448C64.2 483.3 92.9 512 128.2 512L320.2 512z"
      ></path>
    </symbol>
    <symbol viewBox="0 0 640 640" id="flippy-disk">
      <path
        d="M160 144C151.2 144 144 151.2 144 160L144 480C144 488.8 151.2 496 160 496L480 496C488.8 496 496 488.8 496 480L496 237.3C496 233.1 494.3 229 491.3 226L416 150.6L416 240C416 257.7 401.7 272 384 272L224 272C206.3 272 192 257.7 192 240L192 144L160 144zM240 144L240 224L368 224L368 144L240 144zM96 160C96 124.7 124.7 96 160 96L402.7 96C419.7 96 436 102.7 448 114.7L525.3 192C537.3 204 544 220.3 544 237.3L544 480C544 515.3 515.3 544 480 544L160 544C124.7 544 96 515.3 96 480L96 160zM256 384C256 348.7 284.7 320 320 320C355.3 320 384 348.7 384 384C384 419.3 355.3 448 320 448C284.7 448 256 419.3 256 384z"
      ></path>
    </symbol>
    <symbol viewBox="0 0 640 640" id="file-word">
      <path
        d="M192 112L304 112L304 200C304 239.8 336.2 272 376 272L464 272L464 512C464 520.8 456.8 528 448 528L192 528C183.2 528 176 520.8 176 512L176 128C176 119.2 183.2 112 192 112zM352 131.9L444.1 224L376 224C362.7 224 352 213.3 352 200L352 131.9zM192 64C156.7 64 128 92.7 128 128L128 512C128 547.3 156.7 576 192 576L448 576C483.3 576 512 547.3 512 512L512 250.5C512 233.5 505.3 217.2 493.3 205.2L370.7 82.7C358.7 70.7 342.5 64 325.5 64L192 64zM263.3 338.2C260.1 325.3 247.1 317.5 234.2 320.7C221.3 323.9 213.5 337 216.7 349.8L248.7 477.8C251.2 488 260.1 495.3 270.6 495.9C281.1 496.5 290.7 490.2 294.4 480.4L319.9 412.3L345.4 480.4C349.1 490.2 358.7 496.5 369.2 495.9C379.7 495.3 388.6 488 391.1 477.8L423.1 349.8C426.3 336.9 418.5 323.9 405.6 320.7C392.7 317.5 379.7 325.3 376.5 338.2L363.2 391.4L342.3 335.6C339 326.2 330 320 320 320C310 320 301 326.2 297.5 335.6L276.6 391.4L263.3 338.2z"
      ></path>
    </symbol>
    <symbol viewBox="0 0 640 640" id="file-pdf">
      <path
        d="M240 112L128 112C119.2 112 112 119.2 112 128L112 512C112 520.8 119.2 528 128 528L208 528L208 576L128 576C92.7 576 64 547.3 64 512L64 128C64 92.7 92.7 64 128 64L261.5 64C278.5 64 294.8 70.7 306.8 82.7L429.3 205.3C441.3 217.3 448 233.6 448 250.6L448 400.1L400 400.1L400 272.1L312 272.1C272.2 272.1 240 239.9 240 200.1L240 112.1zM380.1 224L288 131.9L288 200C288 213.3 298.7 224 312 224L380.1 224zM272 444L304 444C337.1 444 364 470.9 364 504C364 537.1 337.1 564 304 564L292 564L292 592C292 603 283 612 272 612C261 612 252 603 252 592L252 464C252 453 261 444 272 444zM304 524C315 524 324 515 324 504C324 493 315 484 304 484L292 484L292 524L304 524zM400 444L432 444C460.7 444 484 467.3 484 496L484 560C484 588.7 460.7 612 432 612L400 612C389 612 380 603 380 592L380 464C380 453 389 444 400 444zM432 572C438.6 572 444 566.6 444 560L444 496C444 489.4 438.6 484 432 484L420 484L420 572L432 572zM508 464C508 453 517 444 528 444L576 444C587 444 596 453 596 464C596 475 587 484 576 484L548 484L548 508L576 508C587 508 596 517 596 528C596 539 587 548 576 548L548 548L548 592C548 603 539 612 528 612C517 612 508 603 508 592L508 464z"
      ></path>
    </symbol>
    <symbol viewBox="0 0 640 640" id="file-lines">
      <path
        d="M192 112L304 112L304 200C304 239.8 336.2 272 376 272L464 272L464 512C464 520.8 456.8 528 448 528L192 528C183.2 528 176 520.8 176 512L176 128C176 119.2 183.2 112 192 112zM352 131.9L444.1 224L376 224C362.7 224 352 213.3 352 200L352 131.9zM192 64C156.7 64 128 92.7 128 128L128 512C128 547.3 156.7 576 192 576L448 576C483.3 576 512 547.3 512 512L512 250.5C512 233.5 505.3 217.2 493.3 205.2L370.7 82.7C358.7 70.7 342.5 64 325.5 64L192 64zM248 320C234.7 320 224 330.7 224 344C224 357.3 234.7 368 248 368L392 368C405.3 368 416 357.3 416 344C416 330.7 405.3 320 392 320L248 320zM248 416C234.7 416 224 426.7 224 440C224 453.3 234.7 464 248 464L392 464C405.3 464 416 453.3 416 440C416 426.7 405.3 416 392 416L248 416z"
      ></path>
    </symbol>
    <symbol viewBox="0 0 640 640" id="file-export">
      <path
        d="M240.5 112L128.5 112C119.7 112 112.5 119.2 112.5 128L112.5 512C112.5 520.8 119.7 528 128.5 528L384.5 528C393.3 528 400.5 520.8 400.5 512L400.5 464L448.5 464L448.5 512C448.5 547.3 419.8 576 384.5 576L128.5 576C93.2 576 64.5 547.3 64.5 512L64.5 128C64.5 92.7 93.2 64 128.5 64L262 64C279 64 295.3 70.7 307.3 82.7L429.8 205.3C441.8 217.3 448.5 233.6 448.5 250.6L448.5 320.1L400.5 320.1L400.5 272.1L312.5 272.1C272.7 272.1 240.5 239.9 240.5 200.1L240.5 112.1zM312.5 368L526.6 368L495.6 337C486.2 327.6 486.2 312.4 495.6 303.1C505 293.8 520.2 293.7 529.5 303.1L601.5 375.1C610.9 384.5 610.9 399.7 601.5 409L529.5 481C520.1 490.4 504.9 490.4 495.6 481C486.3 471.6 486.2 456.4 495.6 447.1L526.6 416.1L312.5 416.1C299.2 416.1 288.5 405.4 288.5 392.1C288.5 378.8 299.2 368.1 312.5 368.1zM380.6 224L288.5 131.9L288.5 200C288.5 213.3 299.2 224 312.5 224L380.6 224z"
      ></path>
    </symbol>
    <symbol viewBox="0 0 640 640" id="file-excel">
      <path
        d="M192 112L304 112L304 200C304 239.8 336.2 272 376 272L464 272L464 512C464 520.8 456.8 528 448 528L192 528C183.2 528 176 520.8 176 512L176 128C176 119.2 183.2 112 192 112zM352 131.9L444.1 224L376 224C362.7 224 352 213.3 352 200L352 131.9zM192 64C156.7 64 128 92.7 128 128L128 512C128 547.3 156.7 576 192 576L448 576C483.3 576 512 547.3 512 512L512 250.5C512 233.5 505.3 217.2 493.3 205.2L370.7 82.7C358.7 70.7 342.5 64 325.5 64L192 64zM291.2 329.6C283.2 319 268.2 316.8 257.6 324.8C247 332.8 244.8 347.8 252.8 358.4L290 408L252.8 457.6C244.8 468.2 247 483.2 257.6 491.2C268.2 499.2 283.2 497 291.2 486.4L320 448L348.8 486.4C356.8 497 371.8 499.2 382.4 491.2C393 483.2 395.2 468.2 387.2 457.6L350 408L387.2 358.4C395.2 347.8 393 332.8 382.4 324.8C371.8 316.8 356.8 319 348.8 329.6L320 368L291.2 329.6z"
      ></path>
    </symbol>
    <symbol viewBox="0 0 640 640" id="eye">
      <path
        d="M320 144C254.8 144 201.2 173.6 160.1 211.7C121.6 247.5 95 290 81.4 320C95 350 121.6 392.5 160.1 428.3C201.2 466.4 254.8 496 320 496C385.2 496 438.8 466.4 479.9 428.3C518.4 392.5 545 350 558.6 320C545 290 518.4 247.5 479.9 211.7C438.8 173.6 385.2 144 320 144zM127.4 176.6C174.5 132.8 239.2 96 320 96C400.8 96 465.5 132.8 512.6 176.6C559.4 220.1 590.7 272 605.6 307.7C608.9 315.6 608.9 324.4 605.6 332.3C590.7 368 559.4 420 512.6 463.4C465.5 507.1 400.8 544 320 544C239.2 544 174.5 507.2 127.4 463.4C80.6 419.9 49.3 368 34.4 332.3C31.1 324.4 31.1 315.6 34.4 307.7C49.3 272 80.6 220 127.4 176.6zM320 400C364.2 400 400 364.2 400 320C400 290.4 383.9 264.5 360 250.7C358.6 310.4 310.4 358.6 250.7 360C264.5 383.9 290.4 400 320 400zM240.4 311.6C242.9 311.9 245.4 312 248 312C283.3 312 312 283.3 312 248C312 245.4 311.8 242.9 311.6 240.4C274.2 244.3 244.4 274.1 240.5 311.5zM286 196.6C296.8 193.6 308.2 192.1 319.9 192.1C328.7 192.1 337.4 193 345.7 194.7C346 194.8 346.2 194.8 346.5 194.9C404.4 207.1 447.9 258.6 447.9 320.1C447.9 390.8 390.6 448.1 319.9 448.1C258.3 448.1 206.9 404.6 194.7 346.7C192.9 338.1 191.9 329.2 191.9 320.1C191.9 309.1 193.3 298.3 195.9 288.1C196.1 287.4 196.2 286.8 196.4 286.2C208.3 242.8 242.5 208.6 285.9 196.7z"
      ></path>
    </symbol>
    <symbol viewBox="0 0 640 640" id="eye-slash">
      <path
        d="M73 39.1C63.6 29.7 48.4 29.7 39.1 39.1C29.8 48.5 29.7 63.7 39 73.1L567 601.1C576.4 610.5 591.6 610.5 600.9 601.1C610.2 591.7 610.3 576.5 600.9 567.2L504.5 470.8C507.2 468.4 509.9 466 512.5 463.6C559.3 420.1 590.6 368.2 605.5 332.5C608.8 324.6 608.8 315.8 605.5 307.9C590.6 272.2 559.3 220.2 512.5 176.8C465.4 133.1 400.7 96.2 319.9 96.2C263.1 96.2 214.3 114.4 173.9 140.4L73 39.1zM208.9 175.1C241 156.2 278.1 144 320 144C385.2 144 438.8 173.6 479.9 211.7C518.4 247.4 545 290 558.5 320C544.9 350 518.3 392.5 479.9 428.3C476.8 431.1 473.7 433.9 470.5 436.7L425.8 392C439.8 371.5 448 346.7 448 320C448 249.3 390.7 192 320 192C293.3 192 268.5 200.2 248 214.2L208.9 175.1zM390.9 357.1L282.9 249.1C294 243.3 306.6 240 320 240C364.2 240 400 275.8 400 320C400 333.4 396.7 346 390.9 357.1zM135.4 237.2L101.4 203.2C68.8 240 46.4 279 34.5 307.7C31.2 315.6 31.2 324.4 34.5 332.3C49.4 368 80.7 420 127.5 463.4C174.6 507.1 239.3 544 320.1 544C357.4 544 391.3 536.1 421.6 523.4L384.2 486C364.2 492.4 342.8 496 320 496C254.8 496 201.2 466.4 160.1 428.3C121.6 392.6 95 350 81.5 320C91.9 296.9 110.1 266.4 135.5 237.2z"
      ></path>
    </symbol>
    <symbol viewBox="0 0 640 640" id="download">
      <path
        d="M344 88C344 74.7 333.3 64 320 64C306.7 64 296 74.7 296 88L296 334.1L233 271.1C223.6 261.7 208.4 261.7 199.1 271.1C189.8 280.5 189.7 295.7 199.1 305L303 409C312.4 418.4 327.6 418.4 336.9 409L441 305C450.4 295.6 450.4 280.4 441 271.1C431.6 261.8 416.4 261.7 407.1 271.1L344.1 334.1L344.1 88zM162.2 336L160 336C124.7 336 96 364.7 96 400L96 480C96 515.3 124.7 544 160 544L480 544C515.3 544 544 515.3 544 480L544 400C544 364.7 515.3 336 480 336L477.8 336L429.8 384L480 384C488.8 384 496 391.2 496 400L496 480C496 488.8 488.8 496 480 496L160 496C151.2 496 144 488.8 144 480L144 400C144 391.2 151.2 384 160 384L210.2 384L162.2 336zM464 440C464 426.7 453.3 416 440 416C426.7 416 416 426.7 416 440C416 453.3 426.7 464 440 464C453.3 464 464 453.3 464 440z"
      ></path>
    </symbol>
    <symbol viewBox="0 0 640 640" id="copy">
      <path
        d="M480 400L288 400C279.2 400 272 392.8 272 384L272 128C272 119.2 279.2 112 288 112L421.5 112C425.7 112 429.8 113.7 432.8 116.7L491.3 175.2C494.3 178.2 496 182.3 496 186.5L496 384C496 392.8 488.8 400 480 400zM288 448L480 448C515.3 448 544 419.3 544 384L544 186.5C544 169.5 537.3 153.2 525.3 141.2L466.7 82.7C454.7 70.7 438.5 64 421.5 64L288 64C252.7 64 224 92.7 224 128L224 384C224 419.3 252.7 448 288 448zM160 192C124.7 192 96 220.7 96 256L96 512C96 547.3 124.7 576 160 576L352 576C387.3 576 416 547.3 416 512L416 496L368 496L368 512C368 520.8 360.8 528 352 528L160 528C151.2 528 144 520.8 144 512L144 256C144 247.2 151.2 240 160 240L176 240L176 192L160 192z"
      ></path>
    </symbol>
    <symbol viewBox="0 0 640 640" id="check-small">
      <path
        d="M464.6,221.6c9.3-13.1,6.4-31.2-6.7-40.5-13.1-9.3-31.2-6.4-40.5,6.7l-139.8,194.8-58.1-58.1c-11.4-11.4-29.8-11.4-41,0-11.3,11.4-11.4,29.8-.1,41.1l82.3,82.3c6.1,6.1,14.4,9.1,22.9,8.3s16.2-5.1,21.2-12l159.7-222.6h.1Z"
      ></path>
    </symbol>
    <symbol viewBox="0 0 320 512" id="caret-down">
      <path
        d="M288 224L32 224l0 1.7L160 341 288 225.8l0-1.7zm0-32l32 0 0 32 0 16L160 384 0 240l0-16 0-32 32 0 256 0z"
      ></path>
    </symbol>
    <symbol viewBox="0 0 576 512" id="bluesky">
      <path
        d="M407.8 294.7c-3.3-.4-6.7-.8-10-1.3c3.4 .4 6.7 .9 10 1.3zM288 227.1C261.9 176.4 190.9 81.9 124.9 35.3C61.6-9.4 37.5-1.7 21.6 5.5C3.3 13.8 0 41.9 0 58.4S9.1 194 15 213.9c19.5 65.7 89.1 87.9 153.2 80.7c3.3-.5 6.6-.9 10-1.4c-3.3 .5-6.6 1-10 1.4C74.3 308.6-9.1 342.8 100.3 464.5C220.6 589.1 265.1 437.8 288 361.1c22.9 76.7 49.2 222.5 185.6 103.4c102.4-103.4 28.1-156-65.8-169.9c-3.3-.4-6.7-.8-10-1.3c3.4 .4 6.7 .9 10 1.3c64.1 7.1 133.6-15.1 153.2-80.7C566.9 194 576 75 576 58.4s-3.3-44.7-21.6-52.9c-15.8-7.1-40-14.9-103.2 29.8C385.1 81.9 314.1 176.4 288 227.1z"
      ></path>
    </symbol>
    <symbol viewBox="0 0 448 512" id="bars">
      <path
        d="M0 88C0 74.7 10.7 64 24 64l400 0c13.3 0 24 10.7 24 24s-10.7 24-24 24L24 112C10.7 112 0 101.3 0 88zM0 248c0-13.3 10.7-24 24-24l400 0c13.3 0 24 10.7 24 24s-10.7 24-24 24L24 272c-13.3 0-24-10.7-24-24zM448 408c0 13.3-10.7 24-24 24L24 432c-13.3 0-24-10.7-24-24s10.7-24 24-24l400 0c13.3 0 24 10.7 24 24z"
      ></path>
    </symbol>
    <symbol viewBox="0 0 448 512" id="bars-filter">
      <path
        d="M0 64l448 0 0 32L0 96 0 64zM64 224l320 0 0 32L64 256l0-32zM288 384l0 32-128 0 0-32 128 0z"
      ></path>
    </symbol>
    <symbol viewBox="0 0 640 640" id="arrow-right-from-bracket">
      <path
        d="M232 144C245.3 144 256 133.3 256 120C256 106.7 245.3 96 232 96L160 96C107 96 64 139 64 192L64 448C64 501 107 544 160 544L232 544C245.3 544 256 533.3 256 520C256 506.7 245.3 496 232 496L160 496C133.5 496 112 474.5 112 448L112 192C112 165.5 133.5 144 160 144L232 144zM569 337C578.4 327.6 578.4 312.4 569 303.1L433 167C423.6 157.6 408.4 157.6 399.1 167C389.8 176.4 389.7 191.6 399.1 200.9L494.1 295.9L248 295.9C234.7 295.9 224 306.6 224 319.9C224 333.2 234.7 343.9 248 343.9L494.1 343.9L399.1 438.9C389.7 448.3 389.7 463.5 399.1 472.8C408.5 482.1 423.7 482.2 433 472.8L569 337z"
      ></path>
    </symbol>
    <symbol viewBox="0 0 320 512" id="angle-right">
      <path
        d="M278.6 256l-11.3 11.3-160 160L96 438.6 73.4 416l11.3-11.3L233.4 256 84.7 107.3 73.4 96 96 73.4l11.3 11.3 160 160L278.6 256z"
      ></path>
    </symbol>
  </defs>
</svg>
