<svg xmlns="http://www.w3.org/2000/svg" version="1.1" viewBox="0 0 186 40">
  <path d="M24.52,2.72l.66,7.96h-.3c-2.78-5.89-4.7-7.15-10.21-7.15h-5.36v17.38h4.6c4.7,0,5.92-1.26,6.93-4.99h.3v11.18h-.3c-1.01-3.73-2.23-5.39-6.93-5.39h-4.6v11.13c0,3.73.2,6.25,3.64,6.25v.3H0v-.3c3.44,0,3.64-2.52,3.64-6.25V9.27c0-3.73-.2-6.25-3.64-6.25v-.3h24.52Z"/>
  <path d="M49.45,32.75c0,3.22.86,4.63,2.58,5.24v.3l-6.62,1.71h-.2l-1.01-4.99c-2.63,2.72-5.86,4.99-9.2,4.99-4.05,0-6.47-2.82-6.47-7.86v-13.6c0-3.22-.96-4.43-2.68-5.04v-.3l7.74-.71h.2v18.14c0,3.53.81,6.15,4.4,6.15,1.87,0,4.1-.81,6.02-2.17v-16.07c0-3.22-.96-4.43-2.68-5.04v-.3l7.74-.71h.2v20.25Z"/>
  <path d="M53.49,39.4v-.3c2.07,0,2.23-1.71,2.23-4.94V6.85c0-3.22-.86-4.13-2.58-4.74v-.3l7.63-1.81h.2v34.16c0,3.22.15,4.94,2.22,4.94v.3h-9.71Z"/>
  <path d="M64.91,39.4v-.3c2.07,0,2.23-1.71,2.23-4.94V6.85c0-3.22-.86-4.13-2.58-4.74v-.3l7.63-1.81h.2v34.16c0,3.22.15,4.94,2.22,4.94v.3h-9.71Z"/>
  <path d="M100.15,2.72c8.09,0,12.59,4.23,12.59,10.18,0,7.15-4.3,11.39-11.78,11.39-2.17,0-4.1-.55-5.16-.96v9.52c0,3.73.4,6.25,3.84,6.25v.3h-13.15v-.3c3.44,0,3.64-2.52,3.64-6.25V9.27c0-3.73-.2-6.25-3.64-6.25v-.3h13.65ZM106.88,13.2c0-5.04-2.23-9.67-7.69-9.67h-1.47c-1.21,0-1.92.6-1.92,1.81v15.42c0,1.61,1.01,2.32,3.74,2.32,4.05,0,7.33-3.43,7.33-9.87Z"/>
  <path d="M113.9,39.4v-.3c2.07,0,2.23-1.71,2.23-4.94V6.85c0-3.22-.86-4.13-2.58-4.74v-.3l7.64-1.81h.2v34.16c0,3.22.15,4.94,2.23,4.94v.3h-9.71Z"/>
  <path d="M147.78,36.32c-.81,1.56-2.63,3.68-5.36,3.68-2.88,0-3.49-2.42-3.59-4.28-1.97,2.52-5.01,4.28-7.89,4.28-3.49,0-5.92-2.17-5.92-5.34,0-3.68,2.78-6.2,8.85-7.91l4.7-1.31v-3.58c0-1.46,0-6.85-5.01-6.85-3.34,0-5.81,2.32-7.33,5.24l-.3-.15c1.01-3.33,4.3-7.71,10.11-7.71,5.11,0,7.74,3.38,7.74,8.41v12.75c0,2.07.05,3.73,1.62,3.73,1.06,0,1.77-.76,2.07-1.16l.3.2ZM138.58,35.31v-9.17l-2.98,1.01c-4.25,1.46-5.46,2.97-5.46,5.94,0,2.67,1.62,4.33,3.79,4.33,1.67,0,3.44-1.06,4.65-2.12Z"/>
  <path d="M164.92,35.16c-2.38,3.02-5.56,4.84-8.39,4.84-3.89,0-6.12-2.07-6.12-6.65V15.01h-2.63v-.6l.71-.3c2.93-1.26,5.01-3.38,6.88-8.06h.3v6.95h8.85l-.76,2.02h-8.09v18.03c0,2.82,1.32,4.28,3.79,4.28,1.82,0,3.74-1.11,5.16-2.37l.3.2Z"/>
  <path d="M186,33.2c-1.87,3.27-5.01,6.8-10.47,6.8-7.08,0-11.12-6-11.12-13.4,0-8.16,5.36-14.21,12.29-14.21,5.61,0,9.56,3.88,9.25,10.28h-16.03c-.05.5-.05,1.06-.05,1.56,0,7.41,2.58,12.85,8.19,12.85,3.29,0,6.02-1.76,7.63-4.08l.3.2ZM170.02,21.86h10.82c.4-5.34-.81-8.77-4.4-8.77-3.79,0-5.92,4.08-6.42,8.77Z"/>
</svg>
