<svg width="100%" height="100%" viewBox="0 0 190 24" version="1.1"
     xmlns="http://www.w3.org/2000/svg"
     xml:space="preserve"
     style="fill:#fff; fill-rule:evenodd;clip-rule:evenodd;stroke-linejoin:round;stroke-miterlimit:2;"><path d="M18.199,23.725l-4.268,0l-9.663,-14.622l-0,14.622l-4.268,0l-0,-21.338l4.268,-0l9.663,14.653l-0,-14.653l4.268,-0l-0,21.338Z" style="fill:#fff;fill-rule:nonzero;"/>
  <path
    d="M37.454,14.903c-0,0.61 -0.041,1.16 -0.122,1.648l-12.346,0c0.102,1.221 0.529,2.178 1.281,2.87c0.751,0.692 1.676,1.038 2.774,1.038c1.585,-0 2.713,-0.682 3.383,-2.046l4.603,0c-0.488,1.629 -1.422,2.967 -2.804,4.015c-1.382,1.048 -3.079,1.572 -5.091,1.572c-1.626,-0 -3.084,-0.361 -4.374,-1.084c-1.291,-0.722 -2.297,-1.745 -3.018,-3.068c-0.722,-1.323 -1.082,-2.849 -1.082,-4.579c-0,-1.75 0.355,-3.287 1.067,-4.61c0.711,-1.322 1.707,-2.34 2.987,-3.052c1.28,-0.713 2.754,-1.069 4.42,-1.069c1.605,0 3.043,0.346 4.313,1.038c1.271,0.692 2.256,1.674 2.957,2.946c0.701,1.272 1.052,2.732 1.052,4.381Zm-4.42,-1.221c-0.02,-1.099 -0.417,-1.979 -1.189,-2.641c-0.772,-0.661 -1.717,-0.992 -2.835,-0.992c-1.057,-0 -1.946,0.32 -2.667,0.962c-0.722,0.641 -1.164,1.531 -1.326,2.671l8.017,-0Z"/>
  <path
    d="M47.659,24c-1.626,0 -3.089,-0.361 -4.389,-1.084c-1.301,-0.722 -2.322,-1.745 -3.064,-3.068c-0.742,-1.323 -1.113,-2.849 -1.113,-4.579c0,-1.73 0.381,-3.256 1.143,-4.579c0.763,-1.323 1.804,-2.346 3.125,-3.068c1.321,-0.722 2.794,-1.084 4.42,-1.084c1.626,0 3.099,0.362 4.42,1.084c1.321,0.722 2.363,1.745 3.125,3.068c0.762,1.323 1.143,2.849 1.143,4.579c-0,1.73 -0.391,3.256 -1.174,4.579c-0.782,1.323 -1.839,2.346 -3.17,3.068c-1.331,0.723 -2.82,1.084 -4.466,1.084Zm0,-3.724c0.772,-0 1.499,-0.189 2.18,-0.565c0.681,-0.377 1.224,-0.941 1.631,-1.694c0.406,-0.753 0.609,-1.669 0.609,-2.748c0,-1.608 -0.421,-2.844 -1.265,-3.709c-0.843,-0.865 -1.875,-1.297 -3.094,-1.297c-1.219,-0 -2.24,0.432 -3.063,1.297c-0.824,0.865 -1.235,2.101 -1.235,3.709c-0,1.608 0.401,2.844 1.204,3.709c0.803,0.865 1.814,1.298 3.033,1.298Z"/>
  <path
    d="M67.467,6.569c2.012,-0 3.637,0.636 4.877,1.908c1.24,1.272 1.859,3.047 1.859,5.327l0,9.921l-4.267,0l-0,-9.341c-0,-1.343 -0.336,-2.376 -1.006,-3.099c-0.671,-0.722 -1.585,-1.083 -2.744,-1.083c-1.178,-0 -2.108,0.361 -2.789,1.083c-0.681,0.723 -1.021,1.756 -1.021,3.099l-0,9.341l-4.268,0l0,-16.912l4.268,0l-0,2.106c0.569,-0.732 1.295,-1.307 2.179,-1.724c0.884,-0.418 1.855,-0.626 2.912,-0.626Z"/>
  <path
    d="M89.195,2.417l-0,3.45l-5.67,-0l-0,17.858l-4.268,0l0,-17.858l-5.67,-0l0,-3.45l15.608,0Z"/>
  <path
    d="M93.462,9.438c0.549,-0.895 1.265,-1.597 2.149,-2.106c0.884,-0.509 1.895,-0.763 3.034,-0.763l-0,4.487l-1.128,0c-1.342,0 -2.353,0.316 -3.033,0.947c-0.681,0.631 -1.022,1.73 -1.022,3.297l0,8.425l-4.267,0l-0,-16.912l4.267,0l0,2.625Z"/>
  <path
    d="M99.464,15.208c0,-1.709 0.341,-3.226 1.021,-4.549c0.681,-1.322 1.606,-2.34 2.774,-3.052c1.169,-0.713 2.475,-1.069 3.917,-1.069c1.26,0 2.363,0.255 3.308,0.763c0.945,0.509 1.702,1.15 2.271,1.924l-0,-2.412l4.298,0l0,16.912l-4.298,0l-0,-2.472c-0.549,0.793 -1.306,1.45 -2.271,1.969c-0.965,0.519 -2.078,0.778 -3.338,0.778c-1.423,0 -2.718,-0.366 -3.887,-1.099c-1.168,-0.733 -2.093,-1.765 -2.774,-3.099c-0.68,-1.333 -1.021,-2.864 -1.021,-4.594Zm13.291,0.061c-0,-1.038 -0.203,-1.928 -0.61,-2.671c-0.406,-0.743 -0.955,-1.313 -1.646,-1.71c-0.691,-0.396 -1.433,-0.595 -2.225,-0.595c-0.793,0 -1.524,0.193 -2.195,0.58c-0.671,0.387 -1.214,0.952 -1.631,1.694c-0.416,0.743 -0.625,1.623 -0.625,2.641c0,1.018 0.209,1.908 0.625,2.671c0.417,0.763 0.966,1.349 1.646,1.756c0.681,0.407 1.408,0.61 2.18,0.61c0.792,0 1.534,-0.198 2.225,-0.595c0.691,-0.397 1.24,-0.967 1.646,-1.71c0.407,-0.743 0.61,-1.633 0.61,-2.671Z"/>
  <path
    d="M128.871,6.569c2.011,-0 3.637,0.636 4.877,1.908c1.24,1.272 1.859,3.047 1.859,5.327l0,9.921l-4.267,0l-0,-9.341c-0,-1.343 -0.336,-2.376 -1.006,-3.099c-0.671,-0.722 -1.585,-1.083 -2.744,-1.083c-1.178,-0 -2.108,0.361 -2.789,1.083c-0.681,0.723 -1.021,1.756 -1.021,3.099l-0,9.341l-4.268,0l0,-16.912l4.268,0l-0,2.106c0.569,-0.732 1.295,-1.307 2.179,-1.724c0.884,-0.418 1.855,-0.626 2.912,-0.626Z"/>
  <path
    d="M144.624,24c-1.382,0 -2.622,-0.249 -3.719,-0.748c-1.098,-0.499 -1.966,-1.175 -2.607,-2.03c-0.64,-0.855 -0.99,-1.801 -1.051,-2.839l4.298,-0c0.081,0.651 0.401,1.191 0.96,1.618c0.559,0.427 1.255,0.641 2.088,0.641c0.813,-0 1.448,-0.163 1.905,-0.488c0.458,-0.326 0.686,-0.743 0.686,-1.252c0,-0.55 -0.279,-0.962 -0.838,-1.236c-0.559,-0.275 -1.448,-0.575 -2.667,-0.901c-1.26,-0.305 -2.292,-0.621 -3.094,-0.946c-0.803,-0.326 -1.494,-0.825 -2.073,-1.496c-0.579,-0.672 -0.869,-1.577 -0.869,-2.717c-0,-0.936 0.269,-1.791 0.808,-2.564c0.538,-0.774 1.311,-1.384 2.317,-1.832c1.005,-0.448 2.189,-0.672 3.551,-0.672c2.012,0 3.617,0.504 4.816,1.511c1.199,1.008 1.86,2.366 1.982,4.076l-4.085,-0c-0.061,-0.672 -0.341,-1.206 -0.838,-1.603c-0.498,-0.397 -1.164,-0.595 -1.997,-0.595c-0.772,-0 -1.367,0.142 -1.783,0.427c-0.417,0.285 -0.625,0.682 -0.625,1.191c-0,0.57 0.284,1.002 0.853,1.297c0.569,0.295 1.453,0.595 2.652,0.901c1.22,0.305 2.226,0.62 3.018,0.946c0.793,0.326 1.479,0.829 2.058,1.511c0.579,0.682 0.879,1.583 0.899,2.702c0,0.977 -0.269,1.852 -0.808,2.625c-0.538,0.774 -1.311,1.379 -2.316,1.817c-1.006,0.437 -2.18,0.656 -3.521,0.656Z"/>
  <path
    d="M161.295,10.324l-2.957,-0l-0,13.401l-4.329,0l0,-13.401l-1.92,-0l-0,-3.511l1.92,0l0,-0.855c0,-2.076 0.59,-3.602 1.768,-4.579c1.179,-0.977 2.957,-1.435 5.335,-1.374l-0,3.603c-1.037,-0.021 -1.758,0.152 -2.164,0.519c-0.407,0.366 -0.61,1.027 -0.61,1.984l-0,0.702l2.957,0l-0,3.511Z"/>
  <path
    d="M178.911,14.903c-0,0.61 -0.041,1.16 -0.122,1.648l-12.346,0c0.102,1.221 0.528,2.178 1.28,2.87c0.752,0.692 1.677,1.038 2.774,1.038c1.586,-0 2.713,-0.682 3.384,-2.046l4.603,0c-0.488,1.629 -1.423,2.967 -2.804,4.015c-1.382,1.048 -3.079,1.572 -5.091,1.572c-1.626,-0 -3.084,-0.361 -4.375,-1.084c-1.29,-0.722 -2.296,-1.745 -3.017,-3.068c-0.722,-1.323 -1.083,-2.849 -1.083,-4.579c0,-1.75 0.356,-3.287 1.067,-4.61c0.712,-1.322 1.707,-2.34 2.988,-3.052c1.28,-0.713 2.753,-1.069 4.42,-1.069c1.605,0 3.043,0.346 4.313,1.038c1.27,0.692 2.256,1.674 2.957,2.946c0.701,1.272 1.052,2.732 1.052,4.381Zm-4.42,-1.221c-0.021,-1.099 -0.417,-1.979 -1.189,-2.641c-0.772,-0.661 -1.717,-0.992 -2.835,-0.992c-1.057,-0 -1.946,0.32 -2.667,0.962c-0.722,0.641 -1.164,1.531 -1.326,2.671l8.017,-0Z"/>
  <path
    d="M184.818,9.438c0.549,-0.895 1.265,-1.597 2.149,-2.106c0.884,-0.509 1.895,-0.763 3.033,-0.763l-0,4.487l-1.128,0c-1.341,0 -2.352,0.316 -3.033,0.947c-0.681,0.631 -1.021,1.73 -1.021,3.297l-0,8.425l-4.268,0l0,-16.912l4.268,0l-0,2.625Z"/></svg>
